<svg width="99" height="16" viewBox="0 0 99 16" fill="none" xmlns="http://www.w3.org/2000/svg">
<path d="M0.168359 15.5V14.84C0.675026 14.8133 1.02169 14.7 1.20836 14.5C1.39503 14.2867 1.49503 14 1.50836 13.64C1.53503 13.2667 1.54836 12.8467 1.54836 12.38V3.74C1.54836 3.18 1.56836 2.7 1.60836 2.3C1.36836 2.31333 1.12836 2.32667 0.888359 2.34C0.648359 2.35333 0.408359 2.36667 0.168359 2.38V1.5H4.66836V2.16C4.17503 2.17333 3.82836 2.28667 3.62836 2.5C3.44169 2.71333 3.33503 3 3.30836 3.36C3.29503 3.72 3.28836 4.14 3.28836 4.62V7.94H10.4484V3.74C10.4484 3.18 10.4684 2.7 10.5084 2.3C10.2684 2.31333 10.0284 2.32667 9.78836 2.34C9.54836 2.35333 9.30836 2.36667 9.06836 2.38V1.5H13.5684V2.16C13.075 2.17333 12.7284 2.28667 12.5284 2.5C12.3417 2.71333 12.235 3 12.2084 3.36C12.195 3.72 12.1884 4.14 12.1884 4.62V13.12C12.1884 13.8267 12.1684 14.3533 12.1284 14.7C12.3684 14.6867 12.6084 14.6733 12.8484 14.66C13.0884 14.6467 13.3284 14.6333 13.5684 14.62V15.5H9.06836V14.84C9.57503 14.8133 9.92169 14.7 10.1084 14.5C10.295 14.2867 10.395 14 10.4084 13.64C10.435 13.2667 10.4484 12.8467 10.4484 12.38V8.74L3.28836 8.82V13.12C3.28836 13.8267 3.26836 14.3533 3.22836 14.7C3.46836 14.6867 3.70836 14.6733 3.94836 14.66C4.18836 14.6467 4.42836 14.6333 4.66836 14.62V15.5H0.168359ZM19.9446 15.82C19.0246 15.82 18.1913 15.6067 17.4446 15.18C16.7113 14.74 16.1313 14.1267 15.7046 13.34C15.2779 12.54 15.0646 11.6 15.0646 10.52C15.0646 9.58667 15.2713 8.71333 15.6846 7.9C16.1113 7.08667 16.7046 6.43333 17.4646 5.94C18.2246 5.43333 19.1046 5.18 20.1046 5.18C20.8513 5.18 21.5313 5.34 22.1446 5.66C22.7579 5.98 23.2446 6.46667 23.6046 7.12C23.9779 7.77333 24.1646 8.6 24.1646 9.6L17.1246 9.72C17.1113 11.2533 17.3646 12.4867 17.8846 13.42C18.4046 14.34 19.2513 14.8 20.4246 14.8C20.8379 14.8 21.2579 14.7267 21.6846 14.58C22.1246 14.4333 22.5313 14.2333 22.9046 13.98C23.2779 13.7267 23.5779 13.4467 23.8046 13.14L24.2846 13.54C23.9246 14.1 23.4913 14.5467 22.9846 14.88C22.4779 15.2133 21.9579 15.4533 21.4246 15.6C20.8913 15.7467 20.3979 15.82 19.9446 15.82ZM17.1846 8.88H22.2846C22.2846 8.4 22.2113 7.94 22.0646 7.5C21.9313 7.04667 21.7046 6.68 21.3846 6.4C21.0646 6.10667 20.6446 5.96 20.1246 5.96C19.3513 5.96 18.7046 6.19333 18.1846 6.66C17.6779 7.11333 17.3446 7.85333 17.1846 8.88ZM30.7268 15.82C29.8335 15.82 29.0068 15.62 28.2468 15.22C27.5001 14.8067 26.9001 14.22 26.4468 13.46C26.0068 12.6867 25.7868 11.76 25.7868 10.68C25.7868 9.98667 25.9135 9.31333 26.1668 8.66C26.4201 8.00667 26.7735 7.42 27.2268 6.9C27.6935 6.36667 28.2468 5.94667 28.8868 5.64C29.5268 5.33333 30.2335 5.18 31.0068 5.18C31.7535 5.18 32.4001 5.29333 32.9468 5.52C33.5068 5.74667 33.9401 6.04667 34.2468 6.42C34.5535 6.79333 34.7068 7.2 34.7068 7.64C34.7068 7.93333 34.6268 8.18667 34.4668 8.4C34.3068 8.6 34.0735 8.7 33.7668 8.7C33.4335 8.71333 33.1935 8.61333 33.0468 8.4C32.9135 8.17333 32.8468 7.97333 32.8468 7.8C32.8468 7.66667 32.8668 7.53333 32.9068 7.4C32.9468 7.25333 33.0268 7.12 33.1468 7C33.0401 6.68 32.8535 6.44667 32.5868 6.3C32.3201 6.14 32.0401 6.04 31.7468 6C31.4668 5.94667 31.2335 5.92 31.0468 5.92C30.1401 5.92 29.3735 6.28667 28.7468 7.02C28.1335 7.74 27.8268 8.79333 27.8268 10.18C27.8268 11.0733 27.9668 11.8667 28.2468 12.56C28.5401 13.2533 28.9468 13.8 29.4668 14.2C29.9868 14.5867 30.5868 14.78 31.2668 14.78C31.8935 14.78 32.4935 14.6133 33.0668 14.28C33.6401 13.9467 34.0868 13.54 34.4068 13.06L34.9268 13.46C34.5801 14.02 34.1601 14.4733 33.6668 14.82C33.1868 15.1667 32.6868 15.42 32.1668 15.58C31.6601 15.74 31.1801 15.82 30.7268 15.82ZM42.9113 14.9C43.3247 14.9 43.6113 14.8 43.7713 14.6C43.9313 14.3867 44.0247 14.1 44.0513 13.74C44.078 13.3667 44.0913 12.94 44.0913 12.46V9.66C44.0913 8.51333 43.9047 7.65333 43.5313 7.08C43.1713 6.50667 42.598 6.22667 41.8113 6.24C41.318 6.25333 40.8313 6.37333 40.3513 6.6C39.8847 6.82667 39.5047 7.12 39.2113 7.48V13.38C39.2113 13.6467 39.2047 13.8867 39.1913 14.1C39.178 14.3 39.1513 14.5133 39.1113 14.74C39.3247 14.7267 39.5313 14.72 39.7313 14.72C39.9447 14.7067 40.158 14.6933 40.3713 14.68V15.5H36.2913V14.9C36.7047 14.9 36.9913 14.8 37.1513 14.6C37.3113 14.3867 37.4047 14.1 37.4313 13.74C37.4713 13.3667 37.4913 12.94 37.4913 12.46V3C37.4913 2.78667 37.4913 2.58667 37.4913 2.4C37.5047 2.2 37.5247 1.96667 37.5513 1.7C37.3113 1.71333 37.0713 1.72667 36.8313 1.74C36.6047 1.75333 36.3713 1.76667 36.1313 1.78V0.939999C36.718 0.939999 37.1713 0.913332 37.4913 0.859999C37.8247 0.806666 38.0713 0.739999 38.2313 0.659999C38.4047 0.579999 38.538 0.493333 38.6313 0.399999H39.2113V6.5C39.6513 6.12667 40.1647 5.81333 40.7513 5.56C41.338 5.30667 41.918 5.18 42.4913 5.18C43.6513 5.18 44.4847 5.54667 44.9913 6.28C45.5113 7 45.778 8.12667 45.7913 9.66L45.8113 13.38C45.8113 13.6467 45.8047 13.8867 45.7913 14.1C45.7913 14.3 45.7713 14.5133 45.7313 14.74C45.9447 14.7267 46.1513 14.72 46.3513 14.72C46.5647 14.7067 46.778 14.6933 46.9913 14.68V15.5H42.9113V14.9ZM53.424 15.82C52.4907 15.82 51.644 15.6067 50.884 15.18C50.124 14.74 49.5173 14.14 49.064 13.38C48.624 12.6067 48.404 11.7267 48.404 10.74C48.404 9.68667 48.624 8.74 49.064 7.9C49.504 7.06 50.104 6.4 50.864 5.92C51.624 5.42667 52.4773 5.18 53.424 5.18C54.3573 5.18 55.204 5.40667 55.964 5.86C56.724 6.3 57.3307 6.9 57.784 7.66C58.2373 8.42 58.464 9.28667 58.464 10.26C58.464 11.2867 58.2373 12.2267 57.784 13.08C57.344 13.92 56.744 14.5867 55.984 15.08C55.224 15.5733 54.3707 15.82 53.424 15.82ZM53.584 15.02C54.2907 15.02 54.8507 14.82 55.264 14.42C55.6773 14.02 55.9707 13.5 56.144 12.86C56.3307 12.22 56.424 11.5467 56.424 10.84C56.424 10.24 56.364 9.65333 56.244 9.08C56.1373 8.49333 55.964 7.96667 55.724 7.5C55.484 7.02 55.1707 6.64 54.784 6.36C54.4107 6.08 53.9573 5.94 53.424 5.94C52.7307 5.94 52.164 6.14 51.724 6.54C51.284 6.94 50.9573 7.46 50.744 8.1C50.544 8.74 50.444 9.42667 50.444 10.16C50.444 10.9867 50.5573 11.7733 50.784 12.52C51.0107 13.2533 51.3573 13.8533 51.824 14.32C52.2907 14.7867 52.8773 15.02 53.584 15.02ZM70.2971 15.82C69.4038 15.82 68.5771 15.62 67.8171 15.22C67.0704 14.8067 66.4704 14.22 66.0171 13.46C65.5771 12.6867 65.3571 11.76 65.3571 10.68C65.3571 9.98667 65.4838 9.31333 65.7371 8.66C65.9904 8.00667 66.3438 7.42 66.7971 6.9C67.2638 6.36667 67.8171 5.94667 68.4571 5.64C69.0971 5.33333 69.8038 5.18 70.5771 5.18C71.3238 5.18 71.9704 5.29333 72.5171 5.52C73.0771 5.74667 73.5104 6.04667 73.8171 6.42C74.1238 6.79333 74.2771 7.2 74.2771 7.64C74.2771 7.93333 74.1971 8.18667 74.0371 8.4C73.8771 8.6 73.6438 8.7 73.3371 8.7C73.0038 8.71333 72.7638 8.61333 72.6171 8.4C72.4838 8.17333 72.4171 7.97333 72.4171 7.8C72.4171 7.66667 72.4371 7.53333 72.4771 7.4C72.5171 7.25333 72.5971 7.12 72.7171 7C72.6104 6.68 72.4238 6.44667 72.1571 6.3C71.8904 6.14 71.6104 6.04 71.3171 6C71.0371 5.94667 70.8038 5.92 70.6171 5.92C69.7104 5.92 68.9438 6.28667 68.3171 7.02C67.7038 7.74 67.3971 8.79333 67.3971 10.18C67.3971 11.0733 67.5371 11.8667 67.8171 12.56C68.1104 13.2533 68.5171 13.8 69.0371 14.2C69.5571 14.5867 70.1571 14.78 70.8371 14.78C71.4638 14.78 72.0638 14.6133 72.6371 14.28C73.2104 13.9467 73.6571 13.54 73.9771 13.06L74.4971 13.46C74.1504 14.02 73.7304 14.4733 73.2371 14.82C72.7571 15.1667 72.2571 15.42 71.7371 15.58C71.2304 15.74 70.7504 15.82 70.2971 15.82ZM80.924 15.82C79.9907 15.82 79.144 15.6067 78.384 15.18C77.624 14.74 77.0173 14.14 76.564 13.38C76.124 12.6067 75.904 11.7267 75.904 10.74C75.904 9.68667 76.124 8.74 76.564 7.9C77.004 7.06 77.604 6.4 78.364 5.92C79.124 5.42667 79.9773 5.18 80.924 5.18C81.8573 5.18 82.704 5.40667 83.464 5.86C84.224 6.3 84.8307 6.9 85.284 7.66C85.7373 8.42 85.964 9.28667 85.964 10.26C85.964 11.2867 85.7373 12.2267 85.284 13.08C84.844 13.92 84.244 14.5867 83.484 15.08C82.724 15.5733 81.8707 15.82 80.924 15.82ZM81.084 15.02C81.7907 15.02 82.3507 14.82 82.764 14.42C83.1773 14.02 83.4707 13.5 83.644 12.86C83.8307 12.22 83.924 11.5467 83.924 10.84C83.924 10.24 83.864 9.65333 83.744 9.08C83.6373 8.49333 83.464 7.96667 83.224 7.5C82.984 7.02 82.6707 6.64 82.284 6.36C81.9107 6.08 81.4573 5.94 80.924 5.94C80.2307 5.94 79.664 6.14 79.224 6.54C78.784 6.94 78.4573 7.46 78.244 8.1C78.044 8.74 77.944 9.42667 77.944 10.16C77.944 10.9867 78.0573 11.7733 78.284 12.52C78.5107 13.2533 78.8573 13.8533 79.324 14.32C79.7907 14.7867 80.3773 15.02 81.084 15.02ZM87.6632 15.5V14.9C88.0765 14.9 88.3632 14.8 88.5232 14.6C88.6832 14.3867 88.7765 14.1 88.8032 13.74C88.8299 13.3667 88.8432 12.94 88.8432 12.46L88.8632 7.9C88.8632 7.68667 88.8632 7.47333 88.8632 7.26C88.8765 7.04667 88.9032 6.82667 88.9432 6.6C88.7032 6.61333 88.4632 6.62667 88.2232 6.64C87.9965 6.65333 87.7632 6.66667 87.5232 6.68V5.84C88.1099 5.84 88.5499 5.81333 88.8432 5.76C89.1499 5.70667 89.3765 5.64 89.5232 5.56C89.6699 5.48 89.7899 5.39333 89.8832 5.3H90.4632C90.4899 5.44667 90.5032 5.62 90.5032 5.82C90.5165 6.00667 90.5299 6.24 90.5432 6.52C90.9699 6.13333 91.4765 5.81333 92.0632 5.56C92.6499 5.30667 93.2299 5.18 93.8032 5.18C94.9632 5.18 95.8099 5.54667 96.3432 6.28C96.8765 7 97.1432 8.12667 97.1432 9.66V13.38C97.1432 13.6467 97.1365 13.8867 97.1232 14.1C97.1232 14.3 97.1032 14.5133 97.0632 14.74C97.2765 14.7267 97.4832 14.72 97.6832 14.72C97.8965 14.7067 98.1099 14.6933 98.3232 14.68V15.5H94.2432V14.9C94.6565 14.9 94.9432 14.8 95.1032 14.6C95.2632 14.3867 95.3565 14.1 95.3832 13.74C95.4099 13.3667 95.4232 12.94 95.4232 12.46V9.66C95.4099 8.51333 95.2165 7.64667 94.8432 7.06C94.4832 6.47333 93.9099 6.18667 93.1232 6.2C92.6432 6.21333 92.1699 6.34 91.7032 6.58C91.2499 6.82 90.8699 7.12667 90.5632 7.5C90.5765 7.60667 90.5832 7.72667 90.5832 7.86C90.5832 7.99333 90.5832 8.13333 90.5832 8.28L90.5632 13.38C90.5632 13.6467 90.5565 13.8867 90.5432 14.1C90.5432 14.3 90.5232 14.5133 90.4832 14.74C90.6965 14.7267 90.9032 14.72 91.1032 14.72C91.3165 14.7067 91.5299 14.6933 91.7432 14.68V15.5H87.6632Z" fill="#FFFFFE"/>
</svg>
